<?xml version="1.0" encoding="UTF-8"?>
<!DOCTYPE svg PUBLIC "-//W3C//DTD SVG 1.1//EN" "http://www.w3.org/Graphics/SVG/1.1/DTD/svg11.dtd">
<!-- Creator: CorelDRAW -->
<svg xmlns="http://www.w3.org/2000/svg" xml:space="preserve" width="1080px" height="330px" style="shape-rendering:geometricPrecision; text-rendering:geometricPrecision; image-rendering:optimizeQuality; fill-rule:evenodd; clip-rule:evenodd"
viewBox="0 0 1080 330"
 xmlns:xlink="http://www.w3.org/1999/xlink">
 <defs>
  <style type="text/css">
   <![CDATA[
    .fil0 {fill:none}
    .fil1 {fill:url(#id0)}
   ]]>
  </style>
  <linearGradient id="id0" gradientUnits="userSpaceOnUse" x1="320.487" y1="-70.4776" x2="759.513" y2="400.478">
   <stop offset="0" style="stop-color:#038AFF"/>
   <stop offset="1" style="stop-color:#8C14FC"/>
  </linearGradient>
 </defs>
 <g id="Layer_x0020_1">
  <metadata id="CorelCorpID_0Corel-Layer"/>
  <rect class="fil0" width="1080" height="330"/>
  <path class="fil1" d="M724.098 179.099l0.454724 -0.787795 -31.3429 -54.2882 -0.0708661 0.121654 -64.7409 -112.135 -61.0972 0 30.7429 53.2476 65.7272 113.842 60.3272 0zm193.487 81.3638l4.34409 9.52795 -7.20827 12.4854 -3.37323 0 -7.3122 -16.0346 0 16.0346 -14.8098 0 0 -67.3594 14.8098 0 0 0.165354 8.41535 0c12.6366,0 22.8803,10.2437 22.8803,22.8791 0,10.872 -7.5815,19.9713 -17.7461,22.3016zm-5.13425 -14.0882c4.53661,0 8.21339,-3.67677 8.21339,-8.21339 0,-4.53543 -3.67677,-8.2122 -8.21339,-8.2122l-8.2122 0 0 16.4256 8.2122 0zm-58.4705 -31.585l30.6791 0 0 14.8098 -30.6791 0 0 -14.8098zm0 26.7732l30.6791 0 0 14.8098 -30.6791 0 0 -14.8098zm0 26.1012l30.6791 0 0 14.8098 -30.6791 0 0 -14.8098zm-147.06 14.8122l0 -67.1787 14.811 0 0 0.164173 8.41535 0c12.6366,0 22.8791,10.2437 22.8791,22.8803 0,12.6354 -10.2425,22.8791 -22.8791,22.8791l-8.41535 0 0 21.2551 -14.811 0zm23.2264 -35.922c4.53661,0 8.21339,-3.67677 8.21339,-8.2122 0,-4.53661 -3.67677,-8.21339 -8.21339,-8.21339l-8.21339 0 0 16.4256 8.21339 0zm48.5492 -30.711c2.21102,0 4.17047,1.07362 5.38701,2.72717l0.272835 0 36.8965 63.9059 -17.1071 0 -8.55 -14.8098 -33.7984 0 -8.55 14.8098 -17.1071 0 36.8965 -63.9059 0.274016 0c1.21654,-1.65354 3.1748,-2.72717 5.38583,-2.72717zm8.34921 37.0134l-8.34921 -14.4602 -8.34921 14.4602 16.6984 0zm-157.297 -37.0134c2.21102,0 4.17047,1.07362 5.38701,2.72717l0.272835 0 36.8965 63.9059 -17.1071 0 -8.55 -14.8098 -33.7972 0 -8.55118 14.8098 -17.1071 0 36.8965 -63.9059 0.274016 0c1.21654,-1.65354 3.1748,-2.72717 5.38583,-2.72717zm8.34921 37.0134l-8.34921 -14.4602 -8.34921 14.4602 16.6984 0zm277.878 -73.6453l0.0318898 -0.0531496 57.6461 0 25.0429 -43.376 -57.6461 0 10.3843 -17.9846 57.6449 0 25.4492 -44.0787 -57.6472 0 10.5862 -18.3354 57.6461 0 16.1846 -28.0323 8.86299 -15.3508 -120.169 0 0 1.6689 -29.7839 51.5882 -65.7921 113.954 61.5591 0zm-115.187 -5.96693l84.9425 -147.122 8.14724 -14.113 -61.4315 0 -42.6567 73.8839 -42.6567 -73.8839 -61.3323 0 8.14724 14.113 83.1591 144.037c0.455906,1.10787 1.05591,2.14252 1.77756,3.07795l0.00472441 0.00708661 0.0011811 0c2.44488,3.16535 6.27638,5.2063 10.585,5.2063 4.30984,0 8.14252,-2.03976 10.5874,-5.2063l0.725197 0zm-99.1559 79.2602l-21.5858 -37.3878 -17.0917 0 38.6776 66.9909 0 -29.6031zm148.355 29.9717l0 -67.3594 -14.8098 0 0 0.165354 -8.41654 0c-12.6354,0 -22.8791,10.2437 -22.8791,22.8791 0,12.6366 10.2437,22.8803 22.8791,22.8803l8.41654 0 0 21.4346 14.8098 0zm-23.2264 -36.1016c-4.53543,0 -8.2122,-3.67677 -8.2122,-8.21339 0,-4.53543 3.67677,-8.2122 8.2122,-8.2122l8.21339 0 0 16.4256 -8.21339 0zm-140.102 21.2835l0.296457 -0.512598 -30.0378 -52.0287 -17.2772 0 38.6764 66.9909 0 0.361417 17.5311 0 -8.55118 -14.811 -0.637795 0zm-121.667 33.4854l51.7937 -89.7083 0 -0.129921c2.55827,-4.10079 4.03819,-8.94213 4.03819,-14.1307 0,-6.29291 -2.17559,-12.0768 -5.8122,-16.6429l-30.2575 -52.4067 -8.81929 15.2752 -14.7945 25.6264 -0.0011811 0c-4.89685,6.20315 -12.4819,10.1846 -20.9965,10.1846 -8.51575,0 -16.1008,-3.9815 -20.9976,-10.1846l0 0 -14.7957 -25.6264 -35.7933 -61.9949 0.0330709 0 -24.3886 -42.2433 -7.83898 -13.5756 -0.168898 0c-4.6748,-7.77874 -13.1953,-12.9839 -22.9311,-12.9839l0 -0.592913 -64.9004 0 95.8902 166.088 71.0409 123.046 0.0011811 0c3.92953,9.8752 13.5732,16.8567 24.8492,16.8567 11.2748,0 20.9185,-6.9815 24.848,-16.8567l0.0011811 0zm-169.261 0l45.7217 -79.1917 -40.0654 -69.3957 -9.67087 16.7504c-4.89921,6.0874 -12.4134,9.98386 -20.8346,9.98386 -8.42362,0 -15.9366,-3.89646 -20.837,-9.98504l-14.9563 -25.9063 -35.7933 -61.9949 0.0318898 0 -24.3886 -42.2421 -7.8378 -13.5756 -0.168898 0c-4.6748,-7.77874 -13.1953,-12.9839 -22.9311,-12.9839l0 -0.592913 -64.9004 0 95.8902 166.088 71.0409 123.046 0.0011811 0c3.92953,9.8752 13.5732,16.8567 24.8492,16.8567 11.2748,0 20.9185,-6.9815 24.848,-16.8567l0.0011811 0zm-169.261 0l45.7665 -79.2709 -40.0642 -69.3945 -9.55394 16.5484 -0.0011811 0c-4.89685,6.20315 -12.4819,10.1846 -20.9965,10.1846 -8.51575,0 -16.1008,-3.9815 -20.9976,-10.1846l-0.0011811 0 -14.7945 -25.6264 -35.7933 -61.9949 0.12874 0 -24.3886 -42.2421 -7.8378 -13.5768 -0.406299 0c-4.67362,-7.77874 -13.1929,-12.9839 -22.9299,-12.9839l0 -0.592913 -64.761 0 95.8902 166.088 71.0409 123.046 0.0011811 0c3.92953,9.8752 13.5732,16.8567 24.8492,16.8567 11.2748,0 20.9185,-6.9815 24.848,-16.8567l0.0011811 0z"/>
 </g>
</svg>
